mtllib c1-c-l2-t1-t2-l2.mtl
g c1-c-l2-t1-t2-l2
usemtl 0.972549_0.529412_0.003922_0.000000_0.000000
o mesh0
v -0.5 0.125 -0.5 
v -0.5 0.125 -0.125 
v 0.125 0.125 -0.125 
v 0.125 0.125 -0.5 
vn 0 1 0 
vn 0 1 0 
vn 0 1 0 
vn 0 1 0 
f 1//1 2//2 3//3 
f 3//3 4//4 1//1 
o mesh1
v 0.125 0.125 -0.5 
v 0.125 0.125 -0.125 
v 0.125 -0.5 -0.125 
v 0.125 -0.5 -0.5 
vn 1 0 0 
vn 1 0 0 
vn 1 0 0 
vn 1 0 0 
f 5//5 6//6 7//7 
f 7//7 8//8 5//5 
o mesh2
v -0.5 0.125 -0.5 
v 0.125 0.125 -0.5 
v -0.125 -0.125 -0.5 
v 0.125 -0.5 -0.5 
v -0.125 -0.5 -0.5 
v -0.5 -0.125 -0.5 
vn 0 0 -1 
vn 0 0 -1 
vn 0 0 -1 
vn 0 0 -1 
vn 0 0 -1 
vn 0 0 -1 
f 9//9 10//10 11//11 
f 12//12 13//13 11//11 
f 11//11 10//10 12//12 
f 11//11 14//14 9//9 
o mesh3
v -0.5 -0.125 0.5 
v -0.5 -0.125 -0.5 
v -0.125 -0.125 -0.5 
v -0.125 -0.125 0.5 
vn -1.11022e-16 -1 0 
vn -1.11022e-16 -1 0 
vn -1.11022e-16 -1 0 
vn -1.11022e-16 -1 0 
f 15//15 16//16 17//17 
f 17//17 18//18 15//15 
o mesh4
v -0.125 -0.125 0.5 
v -0.125 -0.125 -0.5 
v -0.125 -0.5 -0.5 
v -0.125 -0.5 0.5 
vn -1 0 0 
vn -1 0 0 
vn -1 0 0 
vn -1 0 0 
f 19//19 20//20 21//21 
f 21//21 22//22 19//19 
o mesh5
v 0.125 -0.5 0.5 
v 0.125 0.125 0.5 
v -0.125 -0.125 0.5 
v -0.5 0.125 0.5 
v -0.5 -0.125 0.5 
v -0.125 -0.5 0.5 
vn 0 0 1 
vn 0 0 1 
vn 0 0 1 
vn 0 0 1 
vn 0 0 1 
vn 0 0 1 
f 23//23 24//24 25//25 
f 26//26 27//27 25//25 
f 25//25 24//24 26//26 
f 25//25 28//28 23//23 
o mesh6
v -0.5 0.125 0.5 
v 0.125 0.125 0.5 
v 0.125 0.125 0.125 
v -0.5 0.125 0.125 
vn 0 1 0 
vn 0 1 0 
vn 0 1 0 
vn 0 1 0 
f 29//29 30//30 31//31 
f 31//31 32//32 29//29 
o mesh7
v 0.125 0.125 0.5 
v 0.125 -0.5 0.5 
v 0.125 -0.5 0.125 
v 0.125 0.125 0.125 
vn 1 0 0 
vn 1 0 0 
vn 1 0 0 
vn 1 0 0 
f 33//33 34//34 35//35 
f 35//35 36//36 33//33 
o mesh8
v -0.5 -0.125 -0.5 
v -0.5 0.125 0.125 
v -0.5 0.125 -0.125 
v -0.5 0.5 -0.125 
v -0.5 0.5 0.125 
v -0.5 -0.125 0.5 
v -0.5 0.125 0.5 
v -0.5 0.125 -0.5 
vn -1 0 0 
vn -1 0 0 
vn -1 0 0 
vn -1 0 0 
vn -1 0 0 
vn -1 0 0 
vn -1 0 0 
vn -1 0 0 
f 37//37 38//38 39//39 
f 40//40 39//39 38//38 
f 38//38 41//41 40//40 
f 42//42 43//43 38//38 
f 38//38 37//37 42//42 
f 39//39 44//44 37//37 
o mesh9
v -0.125 -0.5 0.5 
v 0.125 -0.5 -0.125 
v 0.125 -0.5 0.125 
v 0.5 -0.5 0.125 
v 0.5 -0.5 -0.125 
v -0.125 -0.5 -0.5 
v 0.125 -0.5 -0.5 
v 0.125 -0.5 0.5 
vn 0 -1 0 
vn 0 -1 0 
vn 0 -1 0 
vn 0 -1 0 
vn 0 -1 0 
vn 0 -1 0 
vn 0 -1 0 
vn 0 -1 0 
f 45//45 46//46 47//47 
f 48//48 47//47 46//46 
f 46//46 49//49 48//48 
f 50//50 51//51 46//46 
f 46//46 45//45 50//50 
f 47//47 52//52 45//45 
o mesh10
v 0.5 -0.5 0.125 
v 0.5 0.5 0.125 
v 0.125 0.125 0.125 
v -0.5 0.5 0.125 
v -0.5 0.125 0.125 
v 0.125 -0.5 0.125 
vn 0 0 1 
vn 0 0 1 
vn 0 0 1 
vn 0 0 1 
vn 0 0 1 
vn 0 0 1 
f 53//53 54//54 55//55 
f 56//56 57//57 55//55 
f 55//55 54//54 56//56 
f 55//55 58//58 53//53 
o mesh11
v -0.5 0.5 -0.125 
v 0.5 0.5 -0.125 
v 0.125 0.125 -0.125 
v 0.5 -0.5 -0.125 
v 0.125 -0.5 -0.125 
v -0.5 0.125 -0.125 
vn 0 0 -1 
vn 0 0 -1 
vn 0 0 -1 
vn 0 0 -1 
vn 0 0 -1 
vn 0 0 -1 
f 59//59 60//60 61//61 
f 62//62 63//63 61//61 
f 61//61 60//60 62//62 
f 61//61 64//64 59//59 
o mesh12
v 0.5 0.5 0.125 
v 0.5 0.5 -0.125 
v -0.5 0.5 -0.125 
v -0.5 0.5 0.125 
vn 0 1 0 
vn 0 1 0 
vn 0 1 0 
vn 0 1 0 
f 65//65 66//66 67//67 
f 67//67 68//68 65//65 
o mesh13
v 0.5 -0.5 0.125 
v 0.5 -0.5 -0.125 
v 0.5 0.5 -0.125 
v 0.5 0.5 0.125 
vn 1 4.44089e-16 0 
vn 1 4.44089e-16 0 
vn 1 4.44089e-16 0 
vn 1 4.44089e-16 0 
f 69//69 70//70 71//71 
f 71//71 72//72 69//69 
