mtllib st-st-l-a-a-a.mtl
g st-st-l-a-a-a
usemtl 0.917647_0.917647_0.917647_0.000000_0.000000
o mesh0
v -0.125 0.5 0.5 
v -0.125 0.5 0.375 
v -0.125 -0.125 0.375 
v -0.125 -0.125 0.5 
vn -1 0 0 
vn -1 0 0 
vn -1 0 0 
vn -1 0 0 
f 1//1 2//2 3//3 
f 3//3 4//4 1//1 
o mesh1
v -0.125 -0.125 0.5 
v -0.125 -0.125 0.375 
v 0.5 -0.125 0.375 
v 0.5 -0.125 0.5 
vn -1.11022e-16 -1 0 
vn -1.11022e-16 -1 0 
vn -1.11022e-16 -1 0 
vn -1.11022e-16 -1 0 
f 5//5 6//6 7//7 
f 7//7 8//8 5//5 
o mesh2
v -0.125 0.5 0.5 
v -0.125 -0.125 0.5 
v 0.25 0.25 0.5 
v 0.5 -0.125 0.5 
v 0.5 0.25 0.5 
v 0.25 0.5 0.5 
vn 0 0 1 
vn 0 0 1 
vn 0 0 1 
vn 0 0 1 
vn 0 0 1 
vn 0 0 1 
f 9//9 10//10 11//11 
f 12//12 13//13 11//11 
f 11//11 10//10 12//12 
f 11//11 14//14 9//9 
o mesh3
v 0.5 0.25 0.5 
v 0.5 0.25 0.375 
v 0.25 0.25 0.375 
v 0.25 0.25 0.5 
vn 0 1 0 
vn 0 1 0 
vn 0 1 0 
vn 0 1 0 
f 15//15 16//16 17//17 
f 17//17 18//18 15//15 
o mesh4
v 0.25 0.25 0.5 
v 0.25 0.25 0.375 
v 0.25 0.5 0.375 
v 0.25 0.5 0.5 
vn 1 0 0 
vn 1 0 0 
vn 1 0 0 
vn 1 0 0 
f 19//19 20//20 21//21 
f 21//21 22//22 19//19 
o mesh5
v 0.5 -0.125 0.375 
v -0.125 -0.125 0.375 
v 6.93889e-18 1.38778e-17 0.375 
v -0.125 0.5 0.375 
v 0 0.5 0.375 
v 0.5 1.73472e-18 0.375 
vn 0 0 -1 
vn 0 0 -1 
vn 0 0 -1 
vn 0 0 -1 
vn 0 0 -1 
vn 0 0 -1 
f 23//23 24//24 25//25 
f 26//26 27//27 25//25 
f 25//25 24//24 26//26 
f 25//25 28//28 23//23 
o mesh6
v 0 0.5 0.25 
v 6.93889e-18 1.38778e-17 0.25 
v 6.93889e-18 1.38778e-17 0.375 
v 0 0.5 0.375 
vn -1 -2.77556e-17 0 
vn -1 -2.77556e-17 0 
vn -1 -2.77556e-17 0 
vn -1 -2.77556e-17 0 
f 29//29 30//30 31//31 
f 31//31 32//32 29//29 
o mesh7
v 6.93889e-18 1.38778e-17 0.25 
v 0.5 1.73472e-18 0.25 
v 0.5 1.73472e-18 0.375 
v 6.93889e-18 1.38778e-17 0.375 
vn -2.60209e-17 -1 0 
vn -2.60209e-17 -1 0 
vn -2.60209e-17 -1 0 
vn -2.60209e-17 -1 0 
f 33//33 34//34 35//35 
f 35//35 36//36 33//33 
o mesh8
v 0.5 1.73472e-18 0.25 
v 6.93889e-18 1.38778e-17 0.25 
v 0.125 0.125 0.25 
v 0 0.5 0.25 
v 0.125 0.5 0.25 
v 0.5 0.125 0.25 
vn 0 0 -1 
vn 0 0 -1 
vn 0 0 -1 
vn 0 0 -1 
vn 0 0 -1 
vn 0 0 -1 
f 37//37 38//38 39//39 
f 40//40 41//41 39//39 
f 39//39 38//38 40//40 
f 39//39 42//42 37//37 
o mesh9
v 0.5 0.125 0.125 
v 0.5 0.125 0.25 
v 0.125 0.125 0.25 
v 0.125 0.125 0.125 
vn -2.60209e-17 -1 0 
vn -2.60209e-17 -1 0 
vn -2.60209e-17 -1 0 
vn -2.60209e-17 -1 0 
f 43//43 44//44 45//45 
f 45//45 46//46 43//43 
o mesh10
v 0.125 0.125 0.125 
v 0.125 0.125 0.25 
v 0.125 0.5 0.25 
v 0.125 0.5 0.125 
vn -1 -1.11022e-16 0 
vn -1 -1.11022e-16 0 
vn -1 -1.11022e-16 0 
vn -1 -1.11022e-16 0 
f 47//47 48//48 49//49 
f 49//49 50//50 47//47 
o mesh11
v 0.5 0.125 0.125 
v 0.125 0.125 0.125 
v 0.25 0.25 0.125 
v 0.125 0.5 0.125 
v 0.25 0.5 0.125 
v 0.5 0.25 0.125 
vn 0 0 -1 
vn 0 0 -1 
vn 0 0 -1 
vn 0 0 -1 
vn 0 0 -1 
vn 0 0 -1 
f 51//51 52//52 53//53 
f 54//54 55//55 53//53 
f 53//53 52//52 54//54 
f 53//53 56//56 51//51 
o mesh12
v 0.25 0.5 0 
v 0.25 0.25 0 
v 0.25 0.25 0.125 
v 0.25 0.5 0.125 
vn -1 -1.11022e-16 0 
vn -1 -1.11022e-16 0 
vn -1 -1.11022e-16 0 
vn -1 -1.11022e-16 0 
f 57//57 58//58 59//59 
f 59//59 60//60 57//57 
o mesh13
v 0.25 0.25 0 
v 0.5 0.25 0 
v 0.5 0.25 0.125 
v 0.25 0.25 0.125 
vn 0 -1 0 
vn 0 -1 0 
vn 0 -1 0 
vn 0 -1 0 
f 61//61 62//62 63//63 
f 63//63 64//64 61//61 
o mesh14
v 0.25 0.5 0.375 
v 0.25 0.25 0.375 
v 0.375 0.375 0.375 
v 0.5 0.25 0.375 
v 0.5 0.375 0.375 
v 0.375 0.5 0.375 
vn 0 0 1 
vn 0 0 1 
vn 0 0 1 
vn 0 0 1 
vn 0 0 1 
vn 0 0 1 
f 65//65 66//66 67//67 
f 68//68 69//69 67//67 
f 67//67 66//66 68//68 
f 67//67 70//70 65//65 
o mesh15
v 0.375 0.375 0.375 
v 0.5 0.375 0.375 
v 0.5 0.375 0.25 
v 0.375 0.375 0.25 
vn 0 1 0 
vn 0 1 0 
vn 0 1 0 
vn 0 1 0 
f 71//71 72//72 73//73 
f 73//73 74//74 71//71 
o mesh16
v 0.375 0.5 0.375 
v 0.375 0.375 0.375 
v 0.375 0.375 0.25 
v 0.375 0.5 0.25 
vn 1 0 0 
vn 1 0 0 
vn 1 0 0 
vn 1 0 0 
f 75//75 76//76 77//77 
f 77//77 78//78 75//75 
o mesh17
v 0.375 0.5 0.25 
v 0.375 0.375 0.25 
v 0.5 0.375 0.25 
v 0.5 0.5 0.25 
vn 0 0 1 
vn 0 0 1 
vn 0 0 1 
vn 0 0 1 
f 79//79 80//80 81//81 
f 81//81 82//82 79//79 
o mesh18
v 0.5 0.375 0 
v 0.5 0.375 0.25 
v 0.5 0.25 0.125 
v 0.5 0.25 0.375 
v 0.5 0.125 0.25 
v 0.5 0.5 -0.125 
v 0.5 0.5 0.25 
v 0.5 0.25 0 
v 0.5 0.125 0.125 
v 0.5 1.73472e-18 0.375 
v 0.5 1.73472e-18 0.25 
v 0.5 0.375 0.375 
v 0.5 0.25 0.5 
v 0.5 -0.125 0.5 
v 0.5 -0.125 0.375 
v 0.5 0.375 -0.125 
vn 1 0 0 
vn 1 0 0 
vn 1 0 0 
vn 1 0 0 
vn 1 0 0 
vn 1 0 0 
vn 1 0 0 
vn 1 0 0 
vn 1 0 0 
vn 1 0 0 
vn 1 0 0 
vn 1 0 0 
vn 1 0 0 
vn 1 0 0 
vn 1 0 0 
vn 1 0 0 
f 83//83 84//84 85//85 
f 86//86 87//87 85//85 
f 88//88 89//89 83//83 
f 83//83 89//89 84//84 
f 85//85 84//84 86//86 
f 85//85 90//90 83//83 
f 87//87 91//91 85//85 
f 92//92 93//93 87//87 
f 84//84 94//94 86//86 
f 87//87 86//86 92//92 
f 86//86 95//95 92//92 
f 96//96 97//97 92//92 
f 92//92 95//95 96//96 
f 83//83 98//98 88//88 
o mesh19
v 0.375 0.5 0 
v 0.25 0.5 0.125 
v 0.375 0.5 0.25 
v 0.125 0.5 0.25 
v 0.25 0.5 0.375 
v 0.25 0.5 0 
v 0.5 0.5 -0.125 
v 0.375 0.5 -0.125 
v 0 0.5 0.375 
v 0.5 0.5 0.25 
v 0.375 0.5 0.375 
v -0.125 0.5 0.5 
v 0.25 0.5 0.5 
v 0.125 0.5 0.125 
v 0 0.5 0.25 
v -0.125 0.5 0.375 
vn 0 1 0 
vn 0 1 0 
vn 0 1 0 
vn 0 1 0 
vn 0 1 0 
vn 0 1 0 
vn 0 1 0 
vn 0 1 0 
vn 0 1 0 
vn 0 1 0 
vn 0 1 0 
vn 0 1 0 
vn 0 1 0 
vn 0 1 0 
vn 0 1 0 
vn 0 1 0 
f 99//99 100//100 101//101 
f 102//102 103//103 101//101 
f 99//99 104//104 100//100 
f 105//105 106//106 99//99 
f 101//101 100//100 102//102 
f 107//107 103//103 102//102 
f 99//99 108//108 105//105 
f 103//103 109//109 101//101 
f 110//110 111//111 107//107 
f 107//107 111//111 103//103 
f 100//100 112//112 102//102 
f 102//102 113//113 107//107 
f 107//107 114//114 110//110 
f 101//101 108//108 99//99 
o mesh20
v 0.5 0.25 0 
v 0.25 0.25 0 
v 0.375 0.375 0 
v 0.25 0.5 0 
v 0.375 0.5 0 
v 0.5 0.375 0 
vn 0 0 -1 
vn 0 0 -1 
vn 0 0 -1 
vn 0 0 -1 
vn 0 0 -1 
vn 0 0 -1 
f 115//115 116//116 117//117 
f 118//118 119//119 117//117 
f 117//117 116//116 118//118 
f 117//117 120//120 115//115 
o mesh21
v 0.5 0.375 -0.125 
v 0.5 0.375 0 
v 0.375 0.375 0 
v 0.375 0.375 -0.125 
vn 0 -1 0 
vn 0 -1 0 
vn 0 -1 0 
vn 0 -1 0 
f 121//121 122//122 123//123 
f 123//123 124//124 121//121 
o mesh22
v 0.375 0.375 -0.125 
v 0.375 0.375 0 
v 0.375 0.5 0 
v 0.375 0.5 -0.125 
vn -1 0 0 
vn -1 0 0 
vn -1 0 0 
vn -1 0 0 
f 125//125 126//126 127//127 
f 127//127 128//128 125//125 
o mesh23
v 0.5 0.5 -0.125 
v 0.5 0.375 -0.125 
v 0.375 0.375 -0.125 
v 0.375 0.5 -0.125 
vn 0 0 -1 
vn 0 0 -1 
vn 0 0 -1 
vn 0 0 -1 
f 129//129 130//130 131//131 
f 131//131 132//132 129//129 
